<svg xmlns="http://www.w3.org/2000/svg" viewBox="0 0 64 64" fill="none">
  <defs>
    <radialGradient id="nodeGlow" cx="50%" cy="50%" r="50%">
      <stop offset="0%" stop-color="#22D3EE" stop-opacity="1" />
      <stop offset="60%" stop-color="#8B5CF6" stop-opacity="0.8" />
      <stop offset="100%" stop-color="#0F172A" stop-opacity="0" />
    </radialGradient>
    <linearGradient id="synapseGrad" x1="0%" y1="0%" x2="100%" y2="100%">
      <stop offset="0%" stop-color="#06B6D4" />
      <stop offset="100%" stop-color="#A855F7" />
    </linearGradient>
  </defs>
  
  <rect width="64" height="64" rx="16" fill="#080C17" />
  <rect width="64" height="64" rx="16" stroke="rgba(139, 92, 246, 0.3)" stroke-width="1.5" />
  
  <!-- Synaptic Connectors -->
  <path d="M32 14 L18 28 L24 48 L44 48 L50 28 Z" stroke="url(#synapseGrad)" stroke-width="1.5" stroke-dasharray="2 2" stroke-opacity="0.6"/>
  <line x1="32" y1="32" x2="32" y2="14" stroke="url(#synapseGrad)" stroke-width="2"/>
  <line x1="32" y1="32" x2="18" y2="28" stroke="url(#synapseGrad)" stroke-width="2"/>
  <line x1="32" y1="32" x2="50" y2="28" stroke="url(#synapseGrad)" stroke-width="2"/>
  <line x1="32" y1="32" x2="24" y2="48" stroke="url(#synapseGrad)" stroke-width="2"/>
  <line x1="32" y1="32" x2="44" y2="48" stroke="url(#synapseGrad)" stroke-width="2"/>
  
  <!-- Outer Satellite Nodes -->
  <circle cx="32" cy="14" r="3.5" fill="#22D3EE" />
  <circle cx="18" cy="28" r="3" fill="#8B5CF6" />
  <circle cx="50" cy="28" r="3" fill="#38BDF8" />
  <circle cx="24" cy="48" r="3" fill="#A855F7" />
  <circle cx="44" cy="48" r="3" fill="#06B6D4" />
  
  <!-- Central Pulse Core -->
  <circle cx="32" cy="32" r="12" fill="url(#nodeGlow)" />
  <circle cx="32" cy="32" r="5" fill="#FFFFFF" />
</svg>
